<?xml version="1.0" ?><!DOCTYPE svg  PUBLIC '-//W3C//DTD SVG 1.1//EN'  'http://www.w3.org/Graphics/SVG/1.1/DTD/svg11.dtd'><svg enable-background="new 0 0 128 128" id="Слой_1" version="1.1" viewBox="0 0 128 128" xml:space="preserve" xmlns="http://www.w3.org/2000/svg" xmlns:xlink="http://www.w3.org/1999/xlink"><g><g><g><path d="M107.3,124H20V12.2C20,7.7,23.7,4,28.2,4h79.1V124z" fill="#FFFCF9"/></g></g><g><path d="M84,41.5H44c-1.4,0-2.5-1.1-2.5-2.5s1.1-2.5,2.5-2.5h40c1.4,0,2.5,1.1,2.5,2.5S85.4,41.5,84,41.5z" fill="#5C4862"/></g><g><path d="M84,51.5H44c-1.4,0-2.5-1.1-2.5-2.5s1.1-2.5,2.5-2.5h40c1.4,0,2.5,1.1,2.5,2.5S85.4,51.5,84,51.5z" fill="#5C4862"/></g><g><path d="M84,61.5H44c-1.4,0-2.5-1.1-2.5-2.5s1.1-2.5,2.5-2.5h40c1.4,0,2.5,1.1,2.5,2.5S85.4,61.5,84,61.5z" fill="#5C4862"/></g><g><g><g><g><path d="M72.2,74.6c-3.4,0-6.5,1.5-8.6,3.9c-2.1-2.4-5.1-3.9-8.6-3.9c-6.3,0-11.4,5.1-11.4,11.4       c0,3.6,1.6,6.8,4.2,8.9l0,0l15.8,12.5l15.5-12.2l0,0c2.7-2.1,4.5-5.4,4.5-9.1C83.6,79.7,78.5,74.6,72.2,74.6z" fill="#F7796B"/></g></g></g><g opacity="0.1"><path d="M54.5,95.7c-2.6-2.1-4.1-6.1-4.1-9.7c0-5.1,3.4-9.5,8.1-10.9c-1-0.3-2.2-0.5-3.3-0.5     c-6.3,0-11.4,5.1-11.4,11.4c0,3.6,1.6,6.8,4.2,8.9l0,0l15.8,12.5v-2.8L54.5,95.7L54.5,95.7z" fill="#5C4862"/></g><g><g><path d="M70.3,78.4c1.4-1.6,3.2-2.8,5.3-3.4c-1.1-0.3-2.2-0.5-3.4-0.5c-1.9,0-3.7,0.5-5.2,1.3      C68.3,76.5,69.4,77.4,70.3,78.4z" fill="#F7796B"/></g></g><g><g><g><path d="M63.7,109.8c-0.5,0-1.1-0.2-1.5-0.5L46.3,96.8c0,0-0.1-0.1-0.1-0.1c-3.2-2.7-5-6.6-5-10.7       c0-7.7,6.2-13.9,13.9-13.9c3.1,0,6.1,1.1,8.6,3c2.4-1.9,5.4-3,8.6-3c7.7,0,13.9,6.2,13.9,13.9c0,4.3-1.9,8.2-5.3,10.9       c-0.1,0-0.1,0.1-0.2,0.1l-15.5,12.2C64.8,109.6,64.2,109.8,63.7,109.8z M49.5,92.9l14.1,11.2l13.7-10.9       c0.1-0.1,0.1-0.1,0.2-0.2c2.2-1.7,3.5-4.3,3.5-7.1c0-4.9-4-8.9-8.9-8.9c-2.6,0-5,1.1-6.7,3c-1,1.1-2.8,1.1-3.8,0       c-1.7-1.9-4.1-3-6.7-3c-4.9,0-8.9,4-8.9,8.9C46.2,88.7,47.4,91.2,49.5,92.9C49.5,92.9,49.5,92.9,49.5,92.9z" fill="#5C4862"/></g></g></g></g><g opacity="0.1"><g><path d="M20,12.2h0.5c4.2,0,7.6,3.4,7.6,7.6h79.1V4H28.2C23.7,4,20,7.7,20,12.2z" fill="#5C4862"/></g></g><g><g><g><path d="M28.2,4c4.5,0,8.2,3.7,8.2,8.2h79.1v0c0-4.5-3.7-8.2-8.2-8.2" fill="#FFFFFF"/></g></g></g><path d="M107.3,1.5L107.3,1.5H28.2h0c-5.9,0-10.7,4.8-10.7,10.7V124c0,1.4,1.1,2.5,2.5,2.5h87.3   c1.4,0,2.5-1.1,2.5-2.5V14.7h5.7c1.4,0,2.5-1.1,2.5-2.5C118,6.3,113.2,1.5,107.3,1.5z M104.8,121.5H22.5V12.2   c0-3.1,2.5-5.7,5.7-5.7h0c3.1,0,5.7,2.5,5.7,5.7c0,1.4,1.1,2.5,2.5,2.5h68.4V121.5z M38.6,9.7c-0.3-1.1-0.7-2.2-1.3-3.2h70   c2.2,0,4.2,1.3,5.1,3.2H38.6z" fill="#5C4862"/></g></svg>